# xmcd
#
# Track frame offsets:
#	150
#	15052
#	24340
#	29152
#	36452
#	43367
#	57240
#	70390
#	77252
#	83340
#	88932
#	92845
#	96312
#	100682
#	106957
#	126770
#	139740
#	153377
#	167197
#	178980
#	191870
#	205530
#	218797
#	232752
#	246137
#
# Disc length: 3445 seconds
#
# Revision: 1
# Processed by: cddbd v1.4PL0 Copyright (c) Steve Scherf et al.
# Submitted via: CDmax 2.0
#
DISCID=4d0d7319
DTITLE=Leadbelly
DYEAR=1996
DGENRE=Blues
TTITLE0=The Bourgeois Blues
TTITLE1=Looky looky yonder
TTITLE2=Black Betty
TTITLE3=Poor Howard
TTITLE4=Green Corn
TTITLE5=The Gallis Pole
TTITLE6=Dekalb Woman 2
TTITLE7=Noted Rider
TTITLE8=Big Fat Woman
TTITLE9=Burrow Love and Go
TTITLE10=Bring Me Lil Water Silvy
TTITLE11=Julie Ann Johnson
TTITLE12=Line Em
TTITLE13=Whoe Back Buck
TTITLE14=John Hardy
TTITLE15=Pick a Bale of Cotton
TTITLE16=The Midnight Special
TTITLE17=Alabama Bound
TTITLE18=Rock Island Line
TTITLE19=Good Morning Blues
TTITLE20=Leaving Blues
TTITLE21=Roberta
TTITLE22=Alberta
TTITLE23=I'm on my last go round
TTITLE24=New Your City
EXTD=
EXTT0=
EXTT1=
EXTT2=
EXTT3=
EXTT4=
EXTT5=
EXTT6=
EXTT7=
EXTT8=
EXTT9=
EXTT10=
EXTT11=
EXTT12=
EXTT13=
EXTT14=
EXTT15=
EXTT16=
EXTT17=
EXTT18=
EXTT19=
EXTT20=
EXTT21=
EXTT22=
EXTT23=
EXTT24=
PLAYORDER=
